<svg width="256" height="256" viewBox="0 0 256 256" fill="none" xmlns="http://www.w3.org/2000/svg">
<path d="M0 40C0 17.9086 17.9086 0 40 0H216C238.091 0 256 17.9086 256 40V216C256 238.091 238.091 256 216 256H40C17.9086 256 0 238.091 0 216V40Z" fill="#080808"/>
<path d="M87.375 84C94.2083 84 100.292 85.625 105.625 88.875C110.958 92.125 114.833 96.4167 117.25 101.75C117.542 102.333 117.688 102.958 117.688 103.625C117.688 104.833 117.25 105.875 116.375 106.75C115.5 107.625 114.458 108.062 113.25 108.062C112.458 108.062 111.646 107.812 110.812 107.312C110.021 106.771 109.458 106.125 109.125 105.375C107.417 101.542 104.604 98.5208 100.688 96.3125C96.8125 94.0625 92.375 92.9375 87.375 92.9375C84.7083 92.9375 81.9375 93.2708 79.0625 93.9375C76.2292 94.5625 73.5833 95.5208 71.125 96.8125C68.7083 98.1042 66.75 99.75 65.25 101.75C63.75 103.708 63 106 63 108.625C63 111.667 64 114.146 66 116.062C68 117.938 70.5417 119.417 73.625 120.5C76.75 121.542 80 122.354 83.375 122.938C86.7917 123.479 89.8958 123.938 92.6875 124.312C96.0208 124.771 99.3333 125.479 102.625 126.438C105.958 127.354 108.979 128.667 111.688 130.375C114.396 132.042 116.562 134.208 118.188 136.875C119.854 139.542 120.688 142.812 120.688 146.688C120.688 150.938 119.667 154.646 117.625 157.812C115.583 160.938 112.896 163.542 109.562 165.625C106.271 167.667 102.667 169.208 98.75 170.25C94.875 171.25 91.0833 171.75 87.375 171.75C79.6667 171.75 72.7292 170 66.5625 166.5C60.3958 163 56 158.229 53.375 152.188C53.125 151.521 53 150.917 53 150.375C53 149.167 53.4375 148.125 54.3125 147.25C55.1875 146.375 56.2292 145.938 57.4375 145.938C58.2708 145.938 59.0833 146.208 59.875 146.75C60.7083 147.292 61.2708 147.938 61.5625 148.688C63.5208 153.146 66.7917 156.646 71.375 159.188C76 161.729 81.3333 163 87.375 163C90.0417 163 92.7917 162.688 95.625 162.062C98.5 161.396 101.167 160.417 103.625 159.125C106.083 157.792 108.062 156.104 109.562 154.062C111.104 151.979 111.875 149.521 111.875 146.688C111.875 143.354 110.792 140.792 108.625 139C106.5 137.167 103.875 135.833 100.75 135C97.625 134.125 94.5417 133.5 91.5 133.125C87.4167 132.542 83.1875 131.812 78.8125 130.938C74.4792 130.062 70.4375 128.792 66.6875 127.125C62.9375 125.458 59.8958 123.146 57.5625 120.188C55.2292 117.188 54.0625 113.312 54.0625 108.562C54.0625 104.562 55.0625 101.042 57.0625 98C59.0625 94.9167 61.6875 92.3542 64.9375 90.3125C68.2292 88.2292 71.8333 86.6667 75.75 85.625C79.6667 84.5417 83.5417 84 87.375 84Z" fill="white"/>
<path d="M170.125 84C176.958 84 183.042 85.625 188.375 88.875C193.708 92.125 197.583 96.4167 200 101.75C200.292 102.333 200.438 102.958 200.438 103.625C200.438 104.833 200 105.875 199.125 106.75C198.25 107.625 197.208 108.062 196 108.062C195.208 108.062 194.396 107.812 193.562 107.312C192.771 106.771 192.208 106.125 191.875 105.375C190.167 101.542 187.354 98.5208 183.438 96.3125C179.562 94.0625 175.125 92.9375 170.125 92.9375C167.458 92.9375 164.688 93.2708 161.812 93.9375C158.979 94.5625 156.333 95.5208 153.875 96.8125C151.458 98.1042 149.5 99.75 148 101.75C146.5 103.708 145.75 106 145.75 108.625C145.75 111.667 146.75 114.146 148.75 116.062C150.75 117.938 153.292 119.417 156.375 120.5C159.5 121.542 162.75 122.354 166.125 122.938C169.542 123.479 172.646 123.938 175.438 124.312C178.771 124.771 182.083 125.479 185.375 126.438C188.708 127.354 191.729 128.667 194.438 130.375C197.146 132.042 199.312 134.208 200.938 136.875C202.604 139.542 203.438 142.812 203.438 146.688C203.438 150.938 202.417 154.646 200.375 157.812C198.333 160.938 195.646 163.542 192.312 165.625C189.021 167.667 185.417 169.208 181.5 170.25C177.625 171.25 173.833 171.75 170.125 171.75C162.417 171.75 155.479 170 149.312 166.5C143.146 163 138.75 158.229 136.125 152.188C135.875 151.521 135.75 150.917 135.75 150.375C135.75 149.167 136.188 148.125 137.062 147.25C137.938 146.375 138.979 145.938 140.188 145.938C141.021 145.938 141.833 146.208 142.625 146.75C143.458 147.292 144.021 147.938 144.312 148.688C146.271 153.146 149.542 156.646 154.125 159.188C158.75 161.729 164.083 163 170.125 163C172.792 163 175.542 162.688 178.375 162.062C181.25 161.396 183.917 160.417 186.375 159.125C188.833 157.792 190.812 156.104 192.312 154.062C193.854 151.979 194.625 149.521 194.625 146.688C194.625 143.354 193.542 140.792 191.375 139C189.25 137.167 186.625 135.833 183.5 135C180.375 134.125 177.292 133.5 174.25 133.125C170.167 132.542 165.938 131.812 161.562 130.938C157.229 130.062 153.188 128.792 149.438 127.125C145.688 125.458 142.646 123.146 140.312 120.188C137.979 117.188 136.812 113.312 136.812 108.562C136.812 104.562 137.812 101.042 139.812 98C141.812 94.9167 144.438 92.3542 147.688 90.3125C150.979 88.2292 154.583 86.6667 158.5 85.625C162.417 84.5417 166.292 84 170.125 84Z" fill="white"/>
</svg>